<?xml version="1.0" standalone="no"?><!DOCTYPE svg PUBLIC "-//W3C//DTD SVG 1.1//EN" "http://www.w3.org/Graphics/SVG/1.1/DTD/svg11.dtd"><svg t="1510545657338" class="icon" style="" viewBox="0 0 1024 1024" version="1.1" xmlns="http://www.w3.org/2000/svg" p-id="863" xmlns:xlink="http://www.w3.org/1999/xlink" width="200" height="200"><defs><style type="text/css"></style></defs><path d="M762.56 460.352c-3.328-16.448-8.384-32.64-14.912-48.128-6.4-15.168-14.336-29.824-23.616-43.52-9.152-13.568-19.648-26.304-31.232-37.888-11.584-11.584-24.32-22.08-37.888-31.232C641.216 290.368 626.56 282.368 611.392 275.968 595.968 269.44 579.712 264.384 563.264 261.056 546.432 257.6 529.088 255.808 511.744 255.808c-17.344 0-34.688 1.792-51.584 5.248C443.776 264.384 427.52 269.44 412.096 275.968c-15.168 6.464-29.824 14.4-43.52 23.616C355.008 308.736 342.272 319.232 330.688 330.816 319.168 342.4 308.672 355.136 299.456 368.704c-9.216 13.696-17.216 28.288-23.616 43.52C269.312 427.712 264.32 443.904 260.928 460.352 257.472 477.184 255.744 494.528 255.744 511.872c0 17.344 1.728 34.752 5.184 51.584 3.392 16.448 8.384 32.64 14.912 48.128 6.4 15.168 14.336 29.824 23.616 43.52 9.152 13.568 19.648 26.304 31.232 37.888 11.584 11.584 24.32 22.08 37.888 31.232 13.696 9.216 28.352 17.216 43.52 23.616 15.488 6.528 31.68 11.584 48.128 14.912 16.896 3.52 34.24 5.248 51.584 5.248 17.344 0 34.688-1.728 51.52-5.248 16.448-3.328 32.64-8.32 48.128-14.912 15.168-6.4 29.824-14.4 43.456-23.616 13.568-9.152 26.304-19.648 37.888-31.232 11.584-11.584 22.08-24.32 31.232-37.888 9.216-13.696 17.216-28.352 23.616-43.52 6.528-15.488 11.584-31.68 14.912-48.128 3.456-16.832 5.184-34.24 5.184-51.584C767.744 494.528 766.016 477.184 762.56 460.352zM730.304 509.696c-3.136-0.704-77.184-16.64-152.256-7.168C576.512 498.816 574.912 495.04 573.312 491.264 568.768 480.576 563.84 469.952 558.784 459.584c86.336-35.264 121.408-85.952 121.792-86.592C711.232 410.24 729.792 457.792 730.304 509.696zM656.128 347.776c-0.576 0.832-31.68 48.256-114.24 79.168C504.576 358.272 463.488 303.744 460.224 299.392c16.512-3.968 33.792-6.144 51.52-6.144C567.104 293.248 617.6 313.856 656.128 347.776zM459.392 299.584C459.392 299.584 459.328 299.648 459.392 299.584 459.328 299.648 459.072 299.712 458.688 299.776 458.944 299.712 459.136 299.648 459.392 299.584zM418.432 314.112c2.88 3.904 43.328 58.688 81.216 126.016-104.96 27.904-196.096 26.816-201.856 26.688C312 399.104 357.504 342.912 418.432 314.112zM293.12 511.872c0-2.368 0.128-4.608 0.192-6.912 3.84 0.064 111.872 2.56 224.448-31.168C524.032 486.08 529.984 498.56 535.488 510.976 532.608 511.808 529.728 512.64 526.912 513.6 408.896 551.744 349.056 657.92 349.056 657.92s0.064 0.064 0.064 0.128C314.304 619.264 293.12 568.064 293.12 511.872zM511.744 730.56c-52.928 0-101.44-18.816-139.264-50.112 2.88 2.304 4.864 3.84 4.864 3.84s41.92-91.456 171.584-136.576C549.44 547.52 549.888 547.392 550.4 547.2c30.784 79.936 43.456 146.88 46.72 166.016C570.88 724.416 542.016 730.56 511.744 730.56zM633.92 693.248C631.68 680.064 620.032 615.872 591.36 537.024c70.592-11.264 131.712 8.064 136.256 9.6C717.888 607.552 683.008 660.096 633.92 693.248z" p-id="864"></path></svg>