<?xml version="1.0" standalone="no"?><!DOCTYPE svg PUBLIC "-//W3C//DTD SVG 1.1//EN" "http://www.w3.org/Graphics/SVG/1.1/DTD/svg11.dtd"><svg t="1510545648960" class="icon" style="" viewBox="0 0 1024 1024" version="1.1" xmlns="http://www.w3.org/2000/svg" p-id="635" xmlns:xlink="http://www.w3.org/1999/xlink" width="200" height="200"><defs><style type="text/css"></style></defs><path d="M422.586279 180.956341c0 59.609148 0 119.218295 0 180.956341-59.609148 0-119.218295 0-180.956341 0 0 59.609148 0 119.218295 0 180.956341 59.609148 0 119.218295 0 180.956341 0 0 159.66736 0 321.463617 0 481.130977 59.609148 0 119.218295 0 180.956341 0 0-159.66736 0-321.463617 0-481.130977 59.609148 0 119.218295 0 180.956341 0 0-59.609148 0-119.218295 0-180.956341-59.609148 0-119.218295 0-180.956341 0 0-40.449064 0-80.898129 0-119.218295 0-34.06237 27.675676-59.609148 59.609148-59.609148 40.449064 0 80.898129 0 119.218295 0 0-59.609148 0-119.218295 0-180.956341-59.609148 0-119.218295 0-180.956341 0C503.484407 0 422.586279 80.898129 422.586279 180.956341z" p-id="636"></path></svg>