<?xml version="1.0" standalone="no"?><!DOCTYPE svg PUBLIC "-//W3C//DTD SVG 1.1//EN" "http://www.w3.org/Graphics/SVG/1.1/DTD/svg11.dtd"><svg t="1510545653300" class="icon" style="" viewBox="0 0 1024 1024" version="1.1" xmlns="http://www.w3.org/2000/svg" p-id="749" xmlns:xlink="http://www.w3.org/1999/xlink" width="200" height="200"><defs><style type="text/css"></style></defs><path d="M178.868295 64.123436l666.258293 0c63.279209 0 115.042129 51.762921 115.042129 115.061572l0 666.25727c0 63.281255-51.762921 115.009384-115.042129 115.009384L178.868295 960.451662c-63.297628 0-115.096365-51.728128-115.096365-115.009384L63.771931 179.185009C63.771931 115.886357 115.570667 64.123436 178.868295 64.123436zM716.802968 163.68192c-22.25691 0-40.387849 18.201547-40.387849 40.405245l0 96.560196c0 22.222117 18.130939 40.370453 40.387849 40.370453l101.305267 0c22.186302 0 40.353057-18.148335 40.353057-40.370453l0-96.560196c0-22.204721-18.166755-40.405245-40.353057-40.405245L716.802968 163.68192zM858.829681 443.169355l-78.852906 0c7.478322 24.427342 11.498892 50.176796 11.498892 76.966952 0 149.046594-124.761492 269.928732-278.659581 269.928732-153.860227 0-278.639115-120.882138-278.639115-269.928732 0-26.790156 4.073782-52.53961 11.516288-76.966952l-82.256422 0 0 378.676505c0 19.61064 15.995299 35.553751 35.59059 35.553751L823.222719 857.399611c19.630083 0 35.606962-15.943111 35.606962-35.553751L858.829681 443.169355zM512.81711 335.921749c-99.399871 0-179.997514 78.07724-179.997514 174.460404 0 96.296183 80.598666 174.426635 179.997514 174.426635 99.435687 0 180.035376-78.131475 180.035376-174.426635C692.851463 413.998989 612.252797 335.921749 512.81711 335.921749z" p-id="750"></path></svg>