<?xml version="1.0" standalone="no"?><!DOCTYPE svg PUBLIC "-//W3C//DTD SVG 1.1//EN" "http://www.w3.org/Graphics/SVG/1.1/DTD/svg11.dtd"><svg t="1510545663663" class="icon" style="" viewBox="0 0 1025 1024" version="1.1" xmlns="http://www.w3.org/2000/svg" p-id="1086" xmlns:xlink="http://www.w3.org/1999/xlink" width="200.1953125" height="200"><defs><style type="text/css"></style></defs><path d="M199.424047 357.156571l0 566.272-188.562286 0 0-566.272 188.562286 0zM211.419475 182.272q0.585143 41.728-28.854857 69.705143t-77.421714 28.013714l-1.133714 0q-46.848 0-75.446857-28.013714t-28.562286-69.705143q0-42.276571 29.44-69.997714t76.873143-27.721143 75.995429 27.721143 29.147429 69.997714zM877.714332 598.857143l0 324.571429-188.013714 0 0-302.848q0-60.013714-23.149714-93.988571t-72.301714-34.011429q-35.986286 0-60.269714 19.712t-36.278857 48.859429q-6.290286 17.152-6.290286 46.299429l0 316.013714-188.013714 0q1.133714-227.986286 1.133714-369.700571t-0.585143-169.142857l-0.585143-27.428571 188.013714 0 0 82.285714-1.133714 0q11.446857-18.285714 23.442286-32t32.292571-29.696 49.700571-24.868571 65.426286-8.850286q97.718857 0 157.147429 64.841143t59.428571 189.988571z" p-id="1087"></path></svg>